<svg preserveAspectRatio="none" overflow="visible" style="display: block;" width="345" height="451.5" viewBox="0 0 345 451.5" fill="none" xmlns="http://www.w3.org/2000/svg">
<g id="Component 1">
<path id="Subtract" d="M345 22.5C340.858 22.5 337.5 25.8579 337.5 30C337.5 34.1421 340.858 37.5 345 37.5V52.5C340.858 52.5 337.5 55.8579 337.5 60C337.5 64.1421 340.858 67.5 345 67.5V82.5C340.858 82.5 337.5 85.8579 337.5 90C337.5 94.1421 340.858 97.5 345 97.5V112.5C340.858 112.5 337.5 115.858 337.5 120C337.5 124.142 340.858 127.5 345 127.5V142.5C340.858 142.5 337.5 145.858 337.5 150C337.5 154.142 340.858 157.5 345 157.5V172.5C340.858 172.5 337.5 175.858 337.5 180C337.5 184.142 340.858 187.5 345 187.5V202.5C340.858 202.5 337.5 205.858 337.5 210C337.5 214.142 340.858 217.5 345 217.5V232.5C340.858 232.5 337.5 235.858 337.5 240C337.5 244.142 340.858 247.5 345 247.5V262.5C340.858 262.5 337.5 265.858 337.5 270C337.5 274.142 340.858 277.5 345 277.5V292.5C340.858 292.5 337.5 295.858 337.5 300C337.5 304.142 340.858 307.5 345 307.5V322.5C340.858 322.5 337.5 325.858 337.5 330C337.5 334.142 340.858 337.5 345 337.5V352.5C340.858 352.5 337.5 355.858 337.5 360C337.5 364.142 340.858 367.5 345 367.5V382.5C340.858 382.5 337.5 385.858 337.5 390C337.5 394.142 340.858 397.5 345 397.5V412.5C340.858 412.5 337.5 415.858 337.5 420C337.5 424.142 340.858 427.5 345 427.5V451.5H307.5C307.5 447.358 304.142 444 300 444C295.858 444 292.5 447.358 292.5 451.5H277.5C277.5 447.358 274.142 444 270 444C265.858 444 262.5 447.358 262.5 451.5H247.5C247.5 447.358 244.142 444 240 444C235.858 444 232.5 447.358 232.5 451.5H217.5C217.5 447.358 214.142 444 210 444C205.858 444 202.5 447.358 202.5 451.5H187.5C187.5 447.358 184.142 444 180 444C175.858 444 172.5 447.358 172.5 451.5H157.5C157.5 447.358 154.142 444 150 444C145.858 444 142.5 447.358 142.5 451.5H127.5C127.5 447.358 124.142 444 120 444C115.858 444 112.5 447.358 112.5 451.5H97.5C97.5 447.358 94.1421 444 90 444C85.8579 444 82.5 447.358 82.5 451.5H67.5C67.5 447.358 64.1421 444 60 444C55.8579 444 52.5 447.358 52.5 451.5H37.5C37.5 447.358 34.1421 444 30 444C25.8579 444 22.5 447.358 22.5 451.5H0V427.5C4.14214 427.5 7.5 424.142 7.5 420C7.5 415.858 4.14214 412.5 0 412.5V397.5C4.14214 397.5 7.5 394.142 7.5 390C7.5 385.858 4.14214 382.5 0 382.5V367.5C4.14214 367.5 7.5 364.142 7.5 360C7.5 355.858 4.14214 352.5 0 352.5V337.5C4.14214 337.5 7.5 334.142 7.5 330C7.5 325.858 4.14214 322.5 0 322.5V307.5C4.14214 307.5 7.5 304.142 7.5 300C7.5 295.858 4.14214 292.5 0 292.5V277.5C4.14214 277.5 7.5 274.142 7.5 270C7.5 265.858 4.14214 262.5 0 262.5V247.5C4.14214 247.5 7.5 244.142 7.5 240C7.5 235.858 4.14214 232.5 0 232.5V217.5C4.14214 217.5 7.5 214.142 7.5 210C7.5 205.858 4.14214 202.5 0 202.5V187.5C4.14214 187.5 7.5 184.142 7.5 180C7.5 175.858 4.14214 172.5 0 172.5V157.5C4.14214 157.5 7.5 154.142 7.5 150C7.5 145.858 4.14214 142.5 0 142.5V127.5C4.14214 127.5 7.5 124.142 7.5 120C7.5 115.858 4.14214 112.5 0 112.5V97.5C4.14214 97.5 7.5 94.1421 7.5 90C7.5 85.8579 4.14214 82.5 0 82.5V67.5C4.14214 67.5 7.5 64.1421 7.5 60C7.5 55.8579 4.14214 52.5 0 52.5V37.5C4.14214 37.5 7.5 34.1421 7.5 30C7.5 25.8579 4.14214 22.5 0 22.5V0H22.5C22.5 4.14214 25.8579 7.5 30 7.5C34.1421 7.5 37.5 4.14214 37.5 0H52.5C52.5 4.14214 55.8579 7.5 60 7.5C64.1421 7.5 67.5 4.14214 67.5 0H82.5C82.5 4.14214 85.8579 7.5 90 7.5C94.1421 7.5 97.5 4.14214 97.5 0H112.5C112.5 4.14214 115.858 7.5 120 7.5C124.142 7.5 127.5 4.14214 127.5 0H142.5C142.5 4.14214 145.858 7.5 150 7.5C154.142 7.5 157.5 4.14214 157.5 0H172.5C172.5 4.14214 175.858 7.5 180 7.5C184.142 7.5 187.5 4.14214 187.5 0H202.5C202.5 4.14214 205.858 7.5 210 7.5C214.142 7.5 217.5 4.14214 217.5 0H232.5C232.5 4.14214 235.858 7.5 240 7.5C244.142 7.5 247.5 4.14214 247.5 0H262.5C262.5 4.14214 265.858 7.5 270 7.5C274.142 7.5 277.5 4.14214 277.5 0H292.5C292.5 4.14214 295.858 7.5 300 7.5C304.142 7.5 307.5 4.14214 307.5 0H345V22.5Z" fill="white"/>
</g>
</svg>
